<svg aria-hidden="true" style="position: absolute; width: 0; height: 0; overflow: hidden;" version="1.1" xmlns="http://www.w3.org/2000/svg" xmlns:xlink="http://www.w3.org/1999/xlink">
<defs>
<symbol id="icon-logo" viewBox="0 0 32 32" width="31" height="31">
<path fill="#2b79c2" style="fill: var(--color1, #2b79c2)" d="M28.094 3.15h-24.188c-0.875 0-1.587 0.712-1.587 1.587v12.512h27.369v-12.512c0-0.875-0.712-1.587-1.594-1.587zM7.969 10.906c-0.112 0-0.225-0.044-0.306-0.125-0.169-0.169-0.169-0.45 0-0.619l3.956-3.956c0.169-0.169 0.45-0.169 0.619 0s0.169 0.45 0 0.619l-3.956 3.956c-0.088 0.081-0.2 0.125-0.313 0.125zM11.544 15.3c-0.113 0-0.225-0.044-0.313-0.125-0.169-0.169-0.169-0.45 0-0.619l8.744-8.744c0.169-0.169 0.45-0.169 0.619 0s0.169 0.45 0 0.619l-8.744 8.744c-0.081 0.081-0.194 0.125-0.306 0.125zM24.344 10.8l-4.094 4.094c-0.087 0.088-0.2 0.125-0.313 0.125s-0.225-0.044-0.306-0.125c-0.169-0.169-0.169-0.45 0-0.619l4.094-4.094c0.169-0.169 0.45-0.169 0.619 0 0.169 0.175 0.169 0.45 0 0.619z"></path>
<path fill="#3b4652" style="fill: var(--color2, #3b4652)" d="M18.869 23.1h-5.731c-0.387 1.8-1.644 5.756-5.237 5.756h16.206c-3.594-0.006-4.856-3.956-5.238-5.756zM2.313 20.631c0 0.406 0.15 0.775 0.406 1.056 0.188 0.206 0.425 0.369 0.694 0.456 0.156 0.050 0.319 0.075 0.487 0.075h24.194c0.169 0 0.337-0.025 0.488-0.075 0.269-0.087 0.512-0.244 0.694-0.456 0.25-0.281 0.406-0.65 0.406-1.056v-2.506h-27.369v2.506zM16.031 19.35c0.456 0 0.825 0.369 0.825 0.825s-0.369 0.825-0.825 0.825c-0.456 0-0.825-0.369-0.825-0.825s0.369-0.825 0.825-0.825z"></path>
</symbol>
</defs>
</svg>
